<svg id="Layer_1" data-name="Layer 1" xmlns="http://www.w3.org/2000/svg" xmlns:xlink="http://www.w3.org/1999/xlink" viewBox="0 0 197 197" height="120" width="120"><defs><style>.cls-1,.cls-10,.cls-11,.cls-12,.cls-14,.cls-15,.cls-5,.cls-7{fill:none;}.cls-2{fill:#e6e7e8;}.cls-3{fill:#12a7dd;}.cls-4{fill:#37b7ea;}.cls-10,.cls-11,.cls-12,.cls-14,.cls-15,.cls-5,.cls-7{stroke:#3a4e55;}.cls-15,.cls-5{stroke-linecap:round;stroke-linejoin:round;}.cls-5{stroke-width:3.554px;}.cls-6{fill:#95d8f2;}.cls-10,.cls-11,.cls-12,.cls-14,.cls-7{stroke-miterlimit:10;}.cls-7{stroke-width:1.834px;}.cls-8{fill:#e0e1e2;}.cls-9{fill:#bcbec0;}.cls-10{stroke-width:2.376px;}.cls-11{stroke-width:2.376px;}.cls-12{stroke-width:2.376px;}.cls-13{clip-path:url(#clip-path);}.cls-14{stroke-width:1.834px;}.cls-15{stroke-width:3.283px;}.cls-16{fill:#3a4e55;}.cls-17{fill:#036fa5;}</style><clipPath id="clip-path"><rect class="cls-1" x="17.275" y="23.389" width="162.449" height="150.222"/></clipPath></defs><title>OpenFaaS_logo_stacked</title><path class="cls-2" d="M130.813,123.1H65.737a16.621,16.621,0,0,1-16.559-16.559V41.464A16.621,16.621,0,0,1,65.737,24.9h65.077a16.621,16.621,0,0,1,16.559,16.559v65.077A16.621,16.621,0,0,1,130.813,123.1Zm0,0"/><path class="cls-3" d="M105.707,108.484c-1.153-2.729-2.49-5.886-3.639-8.918-2.853-7.458,8.188-8.611,8.188-8.611S133.91,89.742,135.3,62.389c0,0-7.581,7.7-14.193,6.732S105.037,63.662,97.4,77.491c-7.7-13.829-17.1-9.281-23.714-8.371-6.612.97-14.193-6.732-14.193-6.732,1.4,27.413,25.051,28.566,25.051,28.566s10.187,1.153,8.188,8.611a82.865,82.865,0,0,1-2.853,8.794l2.063,3.763,2.789,2.183,2.669.726h1.76l3.336-2.486,2.426-3.276Zm0,0"/><path class="cls-4" d="M120.93,69.12c-6.612-.97-16.073-5.459-23.714,8.371a23.342,23.342,0,0,0-3.46-4.915c.427,10.071,2.123,32.815,8.128,40.333l.363-.3,2.426-3.273.85-.849c-1.153-2.729-2.486-5.886-3.639-8.918-2.849-7.458,8.188-8.611,8.188-8.611s23.654-1.213,25.051-28.566c0-.061-7.522,7.641-14.193,6.732Zm0,0"/><path class="cls-5" d="M97.4,77.428c-7.7-13.827-17.1-9.278-23.714-8.368-6.612.97-14.193-6.732-14.193-6.732,1.4,27.413,25.051,28.566,25.051,28.566s10.187,1.153,8.188,8.612a83.171,83.171,0,0,1-2.853,8.794M97.4,77.428C105.1,63.6,114.5,68.15,121.109,69.06c6.612.97,14.193-6.732,14.193-6.732-1.393,27.413-25.047,28.566-25.047,28.566s-11.041,1.153-8.188,8.612c1.149,3.033,2.426,6.188,3.639,8.917"/><path class="cls-6" d="M49.908,113.093s10.007-4.732,18.8-9.825c.423-.243,5.882,0,5.882,0h4.792c.423,0,6.732,3.819,6.732,3.819s6.552,3.033,7.7,3.336,11.1-1.09,11.1-1.09l7.338-4.125,5.822-1.94,11.4,1.94s25.717,6.185,15.65,9.7c-.607.183-5.219,5.4-5.762,5.822-.487.426-15.227,3.883-15.227,3.883H94.486l-36.694-2.85Zm0,0"/><path class="cls-4" d="M65.926,41.915,83.676,36.5l4.834,15.839L70.756,57.751Zm0,0"/><path class="cls-7" d="M65.926,41.916,83.676,36.5,88.51,52.337,70.756,57.751Zm0,0"/><path class="cls-8" d="M101.4,45.466S96.545,61.3,86.055,59.66l16.252,2.669,2.426-16.376Zm0,0"/><path class="cls-9" d="M65.926,41.915,83.676,36.5l4.834,15.839L70.756,57.751Zm0,0"/><path class="cls-10" d="M65.926,41.916,83.676,36.5,88.51,52.337,70.756,57.751Zm0,0"/><path class="cls-9" d="M109.39,41.467l18.512-1.3,1.162,16.518-18.511,1.3Zm0,0"/><path class="cls-11" d="M109.39,41.467,127.9,40.162l1.163,16.518-18.511,1.3Zm0,0"/><path class="cls-9" d="M86.519,43.432l18.341,2.837-2.53,16.363L83.989,59.795Zm0,0"/><path class="cls-12" d="M86.519,43.431l18.341,2.837-2.53,16.363L83.989,59.8Zm0,0"/><path class="cls-5" d="M145.8,110.91c-11.887,0-11.887-7.641-23.778-7.641s-11.887,7.641-23.774,7.641-11.887-7.641-23.774-7.641-11.891,7.641-23.778,7.641"/><g class="cls-13"><path class="cls-14" d="M114.681,45.709l.363,7.155m4.006-7.4.423,7.158m3.942-7.4.423,7.158M90.177,49.1l-.97,7.158m5.339-6.552-.97,7.1m5.275-6.489-.97,7.1M71.678,44.92l1.943,6.914m2.242-8.127,1.943,6.914m2.3-8.067,1.943,6.915"/><path class="cls-15" d="M130.813,123.1H65.737a16.62,16.62,0,0,1-16.559-16.559V41.464A16.62,16.62,0,0,1,65.737,24.9h65.077a16.62,16.62,0,0,1,16.559,16.559v65.077A16.62,16.62,0,0,1,130.813,123.1Zm0,0"/></g><path class="cls-16" d="M30.072,151.666v14.679a6.4,6.4,0,1,1-12.8,0V151.666a6.4,6.4,0,0,1,12.8,0Zm-3.515,0a2.881,2.881,0,0,0-5.762,0v14.679a2.881,2.881,0,1,0,5.762,0Zm0,0"/><path class="cls-16" d="M52.757,151.666v2.669a6.42,6.42,0,0,1-6.368,6.428H43.475v11.1a.932.932,0,0,1-.91.91H40.81a.978.978,0,0,1-.91-.91V146.148a.931.931,0,0,1,.91-.91h5.578a6.5,6.5,0,0,1,6.368,6.428Zm-3.579,0a2.846,2.846,0,0,0-2.849-2.849H43.415v8.367h2.913a2.859,2.859,0,0,0,2.849-2.909Zm0,0"/><path class="cls-16" d="M64.524,148.817v8.367h4.852a.9.9,0,0,1,.91.91v1.76a.892.892,0,0,1-.91.91H64.524V169.2h4.852a.894.894,0,0,1,.91.91v1.76a.894.894,0,0,1-.91.91H62.764a1.8,1.8,0,0,1-1.76-1.76V147.058a1.763,1.763,0,0,1,1.76-1.76h6.612a.894.894,0,0,1,.91.91v1.76a.892.892,0,0,1-.91.91H64.524Zm0,0"/><path class="cls-17" d="M107.463,148.817v8.367h4.852a.894.894,0,0,1,.91.91v1.76a.892.892,0,0,1-.91.91h-4.852v11.1a.894.894,0,0,1-.91.91H104.8a.892.892,0,0,1-.91-.91V147.058a1.759,1.759,0,0,1,1.756-1.76h6.612a.892.892,0,0,1,.91.91v1.76a.892.892,0,0,1-.91.91h-4.792Zm0,0"/><path class="cls-17" d="M135.486,151.726v20.139a.894.894,0,0,1-.91.91h-1.76a.892.892,0,0,1-.91-.91V160.824h-5.7v11.041a.894.894,0,0,1-.91.91h-1.76a.9.9,0,0,1-.91-.91V151.726a6.431,6.431,0,0,1,12.861,0Zm-3.579,0a2.881,2.881,0,0,0-5.762,0v5.582h5.7v-5.582Zm0,0"/><path class="cls-17" d="M157.927,151.726v20.139a.894.894,0,0,1-.91.91h-1.76a.892.892,0,0,1-.91-.91V160.824h-5.7v11.041a.894.894,0,0,1-.91.91h-1.76a.9.9,0,0,1-.91-.91V151.726a6.431,6.431,0,0,1,12.861,0Zm-3.519,0a2.881,2.881,0,0,0-5.762,0v5.582h5.7v-5.582Zm0,0"/><path class="cls-17" d="M175.819,153.546v-1.879a2.851,2.851,0,0,0-5.7,0c0,.729,0,.729.184.97l7.7,10.251c1.333,1.76,1.333,1.76,1.333,3.579a6.368,6.368,0,0,1-12.737,0v-1.879a.894.894,0,0,1,.91-.91h1.76a.892.892,0,0,1,.91.91v1.879a2.851,2.851,0,0,0,5.7,0c0-.727,0-.727-.184-.97l-7.7-10.251c-1.333-1.76-1.333-1.76-1.333-3.579a6.368,6.368,0,1,1,12.737,0v1.879a.894.894,0,0,1-.91.91h-1.76a.892.892,0,0,1-.91-.91Zm0,0"/><path class="cls-16" d="M86.358,145.481a6.837,6.837,0,0,0-2.913.666v-.06a.929.929,0,0,0-.91-.91h-1.76a.933.933,0,0,0-.91.91v25.777a.935.935,0,0,0,.91.91h1.76a.933.933,0,0,0,.91-.91V151.85a2.881,2.881,0,0,1,5.762,0v20.015a.932.932,0,0,0,.91.91h1.76a.933.933,0,0,0,.91-.91V151.85a6.459,6.459,0,0,0-6.428-6.368Zm0,0"/></svg>